# xmcd
#
# Track frame offsets:
#	150
#	13336
#	24284
#	48649
#	72728
#	83876
#	99214
#	116917
#	128804
#	141307
#	160551
#	185303
#	196338
#	214539
#	228135
#	243104
#	264622
#	283120
#	294708
#	310485
#
# Disc length: 4366
#
# Revision: 1
# Processed by: cddbd v1.5.1PL0 Copyright (c) Steve Scherf et al.
# Submitted via: EasyCDDAExtractor 4.5.0.1
# Normalized: r0:TDELIM( - )
#
DISCID=24110c14
DTITLE=Various Artist - Guitar Masters
DYEAR=1900
DGENRE=Blues
TTITLE0=Roy Buchanan - Short Fuse (Live)
TTITLE1=Eric Clapton and Jimmy Page - Miles Road
TTITLE2=Albert King - Born Under a Bad Sign (live)
TTITLE3=Freddy King - Red Light Green Light (live)
TTITLE4=Eric Clapton - Snake Drive
TTITLE5=Jimmy Page and the All Stars - Down In My Boots
TTITLE6=John Mayalls Bluesbreakers feat Eric Clapton - Telephone Blues
TTITLE7=Jeff Beck and the All Stars - Steelin'
TTITLE8=Elmore James - The Sky is Crying
TTITLE9=Albert Collins - Too Many Dirty Dishes (live)
TTITLE10=B B KIng - I've Got a Mind to Give Up Living (live)
TTITLE11=Howlin' Wolf feat Willie Johnson - Mr. Highway Man
TTITLE12=Hound Dog Taylor - Jumping With Symphony Sid
TTITLE13=Eddie Taylor - Bad Boy
TTITLE14=Robert Cray - Sleeping in the Ground
TTITLE15=Luther Alison - You Don't Love Me
TTITLE16=Mississippi Fred McDowell - Someday (live)
TTITLE17=Little Milton - If You Love Me Baby
TTITLE18=Clarence 'Gatermouth' Brown - Frosty
TTITLE19=Ike and Tina Turner - I Smell Trouble
EXTD=
EXTT0=
EXTT1=
EXTT2=
EXTT3=
EXTT4=
EXTT5=
EXTT6=
EXTT7=
EXTT8=
EXTT9=
EXTT10=
EXTT11=
EXTT12=
EXTT13=
EXTT14=
EXTT15=
EXTT16=
EXTT17=
EXTT18=
EXTT19=
PLAYORDER=
